<?xml version="1.0" ?><svg height="32" id="svg4050" version="1.1" viewBox="0 0 32 32.000001" width="32" xmlns="http://www.w3.org/2000/svg" xmlns:cc="http://creativecommons.org/ns#" xmlns:dc="http://purl.org/dc/elements/1.1/" xmlns:inkscape="http://www.inkscape.org/namespaces/inkscape" xmlns:rdf="http://www.w3.org/1999/02/22-rdf-syntax-ns#" xmlns:sodipodi="http://sodipodi.sourceforge.net/DTD/sodipodi-0.dtd" xmlns:svg="http://www.w3.org/2000/svg"><defs id="defs4052"/><g id="layer1" transform="translate(0,-1020.3622)"><path d="M 4 2 C 2.9006421 2 2 2.9007 2 4 L 2 28 C 2 29.0994 2.9006421 30 4 30 L 28 30 C 29.099357 30 30 29.0994 30 28 L 30 4 C 30 2.9007 29.099357 2 28 2 L 4 2 z M 4 3 L 28 3 C 28.562661 3 29 3.4374 29 4 L 29 6 L 3 6 L 3 4 C 3 3.4374 3.4373387 3 4 3 z M 4.5 4 A 0.5 0.5 0 0 0 4 4.5 A 0.5 0.5 0 0 0 4.5 5 A 0.5 0.5 0 0 0 5 4.5 A 0.5 0.5 0 0 0 4.5 4 z M 6.5 4 A 0.5 0.5 0 0 0 6 4.5 A 0.5 0.5 0 0 0 6.5 5 A 0.5 0.5 0 0 0 7 4.5 A 0.5 0.5 0 0 0 6.5 4 z M 8.5 4 A 0.5 0.5 0 0 0 8 4.5 A 0.5 0.5 0 0 0 8.5 5 A 0.5 0.5 0 0 0 9 4.5 A 0.5 0.5 0 0 0 8.5 4 z M 3 7 L 29 7 L 29 18 L 3 18 L 3 7 z M 3 19 L 15.5 19 L 15.5 29 L 4 29 C 3.4373387 29 3 28.5627 3 28 L 3 19 z M 16.5 19 L 29 19 L 29 28 C 29 28.5627 28.562661 29 28 29 L 16.5 29 L 16.5 19 z M 4.4492188 22 A 0.50005 0.50005 0 0 0 4.5 23 L 6.875 23 L 10.5 23 A 0.50005 0.50005 0 1 0 10.5 22 L 6.875 22 L 4.5 22 A 0.50005 0.50005 0 0 0 4.4492188 22 z M 12.449219 22 A 0.50005 0.50005 0 0 0 12.5 23 L 13.5 23 A 0.50005 0.50005 0 1 0 13.5 22 L 12.5 22 A 0.50005 0.50005 0 0 0 12.449219 22 z M 4.4492188 25 A 0.50005 0.50005 0 0 0 4.5 26 L 6.875 26 L 10.5 26 A 0.50005 0.50005 0 1 0 10.5 25 L 6.875 25 L 4.5 25 A 0.50005 0.50005 0 0 0 4.4492188 25 z M 12.449219 25 A 0.50005 0.50005 0 0 0 12.5 26 L 13.5 26 A 0.50005 0.50005 0 1 0 13.5 25 L 12.5 25 A 0.50005 0.50005 0 0 0 12.449219 25 z " id="rect4380" style="color:#000000;font-style:normal;font-variant:normal;font-weight:normal;font-stretch:normal;font-size:medium;line-height:normal;font-family:sans-serif;text-indent:0;text-align:start;text-decoration:none;text-decoration-line:none;text-decoration-style:solid;text-decoration-color:#000000;letter-spacing:normal;word-spacing:normal;text-transform:none;direction:ltr;block-progression:tb;writing-mode:lr-tb;baseline-shift:baseline;text-anchor:start;white-space:normal;clip-rule:nonzero;display:inline;overflow:visible;visibility:visible;opacity:1;isolation:auto;mix-blend-mode:normal;color-interpolation:sRGB;color-interpolation-filters:linearRGB;solid-color:#000000;solid-opacity:1;fill:#000000;fill-opacity:1;fill-rule:nonzero;stroke:none;stroke-width:1;stroke-linecap:round;stroke-linejoin:round;stroke-miterlimit:4.0999999;stroke-dasharray:none;stroke-dashoffset:0;stroke-opacity:1;color-rendering:auto;image-rendering:auto;shape-rendering:auto;text-rendering:auto;enable-background:accumulate" transform="translate(0,1020.3622)"/></g></svg>